Coordinates
version=1
nRows=4
nColumns=107
inDegrees=yes

Units are S.I. units (second, meters, Newtons, ...)
If the header above contains a line with 'inDegrees', this indicates whether rotational values are in degrees (yes) or radians (no).

endheader
time	sternoclavicular_r2	sternoclavicular_r3	unrotscap_r3	unrotscap_r2	acromioclavicular_r2	acromioclavicular_r3	acromioclavicular_r1	unrothum_r1	unrothum_r3	unrothum_r2	elv_angle	shoulder_elv	shoulder1_r2	shoulder_rot	elbow_flexion	pro_sup	deviation	flexion	proximal_distal_r1	proximal_distal_r3	cmc_flexion	cmc_abduction	mp_flexion	ip_flexion	mcp2_flexion	mcp2_abduction	pm2_flexion	md2_flexion	mcp3_flexion	mcp3_abduction	pm3_flexion	md3_flexion	mcp4_flexion	mcp4_abduction	pm4_flexion	md4_flexion	mcp5_flexion	mcp5_abduction	pm5_flexion	md5_flexion	bicpt_tx	bicpt_ty	bicpt_tz	bicpt2_tx	bicpt2_ty	bicpt2_tz	ptpt_tx	ptpt_ty	ptpt_tz	FCUpt_tx	FCUpt_ty	FCUpt_tz	EDCpt_tx	EDCpt_ty	EDCpt_tz	APLpt_tx	APLpt_ty	APLpt_tz	FPLpt_tx	FPLpt_ty	FPLpt_tz	FPLpt2_tx	FPLpt2_ty	FPLpt2_tz	PEC1pt2_tx	PEC1pt2_ty	PEC1pt2_tz	PEC1pt3_tx	PEC1pt3_ty	PEC1pt3_tz	PEC2pt2_tx	PEC2pt2_ty	PEC2pt2_tz	PEC2pt3_tx	PEC2pt3_ty	PEC2pt3_tz	PEC3pt2_tx	PEC3pt2_ty	PEC3pt2_tz	PEC3pt3_tx	PEC3pt3_ty	PEC3pt3_tz	DELT2pt2a_tx	DELT2pt2a_ty	DELT2pt2a_tz	DELT2pt2_tx	DELT2pt2_ty	DELT2pt2_tz	LAT1pt2_tx	LAT1pt2_ty	LAT1pt2_tz	LAT1pt3_tx	LAT1pt3_ty	LAT1pt3_tz	LAT2pt2_tx	LAT2pt2_ty	LAT2pt2_tz	LAT2pt3_tx	LAT2pt3_ty	LAT2pt3_tz	LAT3pt2_tx	LAT3pt2_ty	LAT3pt2_tz	LAT3pt3_tx	LAT3pt3_ty	LAT3pt3_tz
      2.03333333	     -0.30772682	      0.13033856	     -0.13033856	      0.30772682	     -0.06230842	      0.50355474	      0.22634439	     -0.22634439	     -0.50355474	      0.06230842	    103.85961619	     72.85705911	     -1.81269226	    -46.07236345	     31.31960844	     87.81673362	      0.38319035	     -0.20388783	      0.39985791	     -0.10194391	     20.85151714	    -11.01685592	    -11.42295829	      7.17199310	     11.49824121	      8.34395191	     17.05424537	      0.62215402	     12.09986723	     -0.17275686	     19.04546584	     19.21607145	     15.16611858	     -8.32580241	     14.71433565	     23.82881487	     20.34861149	    -14.21277489	     32.19200024	      5.28279183	      0.00093596	     -0.03118971	     -0.00487821	      0.01404834	     -0.01870813	     -0.00076261	      0.00106133	     -0.06909568	     -0.00712411	      0.01294721	     -0.18217574	      0.00013508	     -0.01053798	      0.00367822	     -0.00081645	      0.00017379	      0.00006952	      0.00034759	      0.00022246	      0.00066737	      0.00037539	      0.00000974	     -0.00027974	     -0.00033569	      0.00238809	      0.00837857	      0.00582857	     -0.00781190	      0.01886190	     -0.01789047	      0.00238809	      0.00837857	      0.00582857	      0.00052619	      0.01748571	     -0.00918809	      0.00382063	      0.00465922	      0.01564809	      0.00000000	      0.00709484	      0.00000000	     -0.00684047	     -0.03161190	     -0.00584589	      0.02427529	     -0.00133489	     -0.01664340	     -0.00085000	      0.01424761	     -0.00582857	      0.00234762	      0.02056190	     -0.01699999	     -0.00570714	      0.01234523	     -0.00522143	     -0.01190000	      0.02606666	     -0.02918332	     -0.02234285	      0.01380238	     -0.00700238	     -0.01481428	      0.03011428	     -0.03646904
      2.06666667	     -0.30782493	      0.13038011	     -0.13038011	      0.30782493	     -0.06232829	      0.50371529	      0.22641656	     -0.22641656	     -0.50371529	      0.06232829	    103.55049157	     72.88028909	     -1.80729702	    -45.24392375	     31.68887530	     87.62107108	      0.39639889	     -0.14978965	      0.40935615	     -0.07489483	     18.94267672	    -11.96280279	     -9.88329445	      6.53659229	      9.38064657	      7.95333340	     17.69943543	     -3.54192106	      9.81018563	     -0.52544301	     17.91161322	     18.32437769	     13.41152144	     -8.36781106	     11.13505080	     24.41777966	     19.09090743	    -14.19835730	     29.01370642	      5.30295170	      0.00094817	     -0.03123203	     -0.00488502	      0.01406938	     -0.01880844	     -0.00079662	      0.00107579	     -0.06908633	     -0.00710835	      0.01292462	     -0.18218247	      0.00012942	     -0.01051450	      0.00366737	     -0.00080997	      0.00013447	      0.00005379	      0.00026893	      0.00017212	      0.00051635	      0.00029045	      0.00001443	     -0.00027422	     -0.00032906	      0.00238886	      0.00838124	      0.00583043	     -0.00781439	      0.01886791	     -0.01789617	      0.00238886	      0.00838124	      0.00583043	      0.00052636	      0.01749128	     -0.00919102	      0.00382154	      0.00466070	      0.01565042	      0.00000000	      0.00709939	      0.00000000	     -0.00684266	     -0.03162197	     -0.00584967	      0.02408165	     -0.00130404	     -0.01611921	     -0.00085027	      0.01425216	     -0.00583043	      0.00234837	      0.02056845	     -0.01700542	     -0.00570896	      0.01234917	     -0.00522309	     -0.01190379	      0.02607497	     -0.02919263	     -0.02234997	      0.01380678	     -0.00700461	     -0.01481900	      0.03012388	     -0.03648066
      2.10000000	     -0.30779826	      0.13036882	     -0.13036882	      0.30779826	     -0.06232289	      0.50367165	      0.22639694	     -0.22639694	     -0.50367165	      0.06232289	    103.85039064	     72.87397421	     -1.81253125	    -45.97383459	     31.31320395	     87.63354180	      0.38945786	     -0.18675158	      0.40440106	     -0.09337579	     18.30767476	    -12.88718327	     -9.71804481	      6.93419697	      8.17390035	      7.93184434	     17.35648823	     -3.91237198	      8.39446139	     -0.36683919	     17.28483588	     18.02551376	     11.74884796	     -8.17011048	     10.22317058	     24.07753454	     17.57184139	    -14.18976218	     28.16309554	      5.24588989	      0.00093574	     -0.03118897	     -0.00487809	      0.01406800	     -0.01870639	     -0.00079443	      0.00107487	     -0.06908693	     -0.00710935	      0.01292607	     -0.18218204	      0.00012979	     -0.01051600	      0.00366807	     -0.00081039	      0.00016187	      0.00006475	      0.00032373	      0.00020719	      0.00062157	      0.00034963	      0.00001599	     -0.00027149	     -0.00032579	      0.00238865	      0.00838051	      0.00582992	     -0.00781372	      0.01886628	     -0.01789462	      0.00238865	      0.00838051	      0.00582992	      0.00052631	      0.01748977	     -0.00919023	      0.00382129	      0.00466030	      0.01564979	      0.00000000	      0.00709815	      0.00000000	     -0.00684206	     -0.03161923	     -0.00584865	      0.02425277	     -0.00133122	     -0.01658081	     -0.00085020	      0.01425092	     -0.00582992	      0.00234816	      0.02056667	     -0.01700394	     -0.00570847	      0.01234810	     -0.00522264	     -0.01190276	      0.02607271	     -0.02919010	     -0.02234804	      0.01380558	     -0.00700400	     -0.01481772	      0.03012127	     -0.03647750
      2.13333333	     -0.30794137	      0.13042943	     -0.13042943	      0.30794137	     -0.06235186	      0.50390583	      0.22650220	     -0.22650220	     -0.50390583	      0.06235186	    103.97266673	     72.90785708	     -1.81466537	    -46.18539827	     31.05742568	     87.52402777	      0.38995920	     -0.20612282	      0.40476127	     -0.10306141	     17.82279025	    -13.73486180	     -9.55197523	      7.20582613	      7.48655294	      8.08870449	     17.11084111	     -4.16582425	      7.38421426	     -0.19522066	     16.70670188	     17.75290546	     10.41356185	     -8.03647160	      9.37896005	     23.75097571	     16.47477438	    -14.18682940	     27.41831876	      5.17248085	      0.00092728	     -0.03115966	     -0.00487337	      0.01407972	     -0.01863690	     -0.00081343	      0.00108296	     -0.06908169	     -0.00710053	      0.01291343	     -0.18218580	      0.00012664	     -0.01050286	      0.00366200	     -0.00080678	      0.00017531	      0.00007012	      0.00035062	      0.00022440	      0.00067320	      0.00037867	      0.00001717	     -0.00026910	     -0.00032292	      0.00238976	      0.00838441	      0.00583263	     -0.00781735	      0.01887505	     -0.01790294	      0.00238976	      0.00838441	      0.00583263	      0.00052656	      0.01749790	     -0.00919450	      0.00382262	      0.00466246	      0.01565320	      0.00000000	      0.00710478	      0.00000000	     -0.00684524	     -0.03163394	     -0.00585416	      0.02430122	     -0.00133911	     -0.01671515	     -0.00085059	      0.01425755	     -0.00583263	      0.00234926	      0.02057623	     -0.01701185	     -0.00571112	      0.01235384	     -0.00522507	     -0.01190829	      0.02608483	     -0.02920367	     -0.02235843	      0.01381200	     -0.00700726	     -0.01482461	      0.03013527	     -0.03649446
